<svg viewBox="0 0 420 620" xmlns="http://www.w3.org/2000/svg" role="img" aria-label="Shape when the goalkeeper kicks long, our goal at the bottom">
<defs><marker id="ah" viewBox="0 0 10 10" refX="9" refY="5" markerWidth="5" markerHeight="5" orient="auto-start-reverse"><path d="M 0 0 L 10 5 L 0 10 z" fill="#FFC400"/></marker></defs>
<rect x="0" y="0" width="420" height="620" fill="#1C4B2A"/>
<rect x="0" y="0" width="420" height="56" fill="#1F5430"/>
<rect x="0" y="112" width="420" height="56" fill="#1F5430"/>
<rect x="0" y="224" width="420" height="56" fill="#1F5430"/>
<rect x="0" y="336" width="420" height="56" fill="#1F5430"/>
<rect x="0" y="448" width="420" height="56" fill="#1F5430"/>
<rect x="0" y="560" width="420" height="56" fill="#1F5430"/>
<rect x="16" y="16" width="388" height="588" stroke="#ffffff" stroke-opacity=".42" fill="none" stroke-width="2"/>
<rect x="170.0" y="10" width="80" height="10" fill="#ffffff" fill-opacity=".5"/>
<rect x="118.0" y="16" width="184" height="60" stroke="#ffffff" stroke-opacity=".42" fill="none" stroke-width="2"/>
<rect x="166.0" y="16" width="88" height="24" stroke="#ffffff" stroke-opacity=".42" fill="none" stroke-width="2"/>
<path d="M 158.0 76 A 58 58 0 0 0 262.0 76" stroke="#ffffff" stroke-opacity=".42" fill="none" stroke-width="2"/>
<rect x="170.0" y="600" width="80" height="10" fill="#FFC400" fill-opacity=".55"/>
<rect x="118.0" y="544" width="184" height="60" stroke="#ffffff" stroke-opacity=".42" fill="none" stroke-width="2"/>
<rect x="166.0" y="580" width="88" height="24" stroke="#ffffff" stroke-opacity=".42" fill="none" stroke-width="2"/>
<path d="M 158.0 544 A 58 58 0 0 1 262.0 544" stroke="#ffffff" stroke-opacity=".42" fill="none" stroke-width="2"/>
<line x1="16" y1="310.0" x2="404" y2="310.0" stroke="#ffffff" stroke-opacity=".3" stroke-width="2" stroke-dasharray="7 7"/>
<circle cx="210.0" cy="310.0" r="46" stroke="#ffffff" stroke-opacity=".42" fill="none" stroke-width="2"/>
<text x="210.0" y="592" fill="#FFC400" fill-opacity=".55" font-family="Barlow Condensed,sans-serif" font-size="13" text-anchor="middle" letter-spacing="2">OUR GOAL</text>
<circle cx="210.0" cy="46" r="17" fill="#E8E8E8" stroke="#8A8A8A" stroke-width="2.5"/><text x="210.0" y="51" fill="#333333" font-family="Archivo Black,sans-serif" font-size="11.5" text-anchor="middle">GK</text>
<path d="M 220.0 62 C 340.0 150, 330.0 320, 250.0 386" fill="none" stroke="#ffffff" stroke-width="3" stroke-dasharray="9 8" opacity=".8"/>
<text x="390" y="210" fill="#ffffff" font-family="Barlow Condensed,sans-serif" font-size="15" font-weight="600" text-anchor="end" letter-spacing=".8">long ball</text>
<circle cx="210.0" cy="150" r="17" fill="#FFC400" stroke="#0B0B0C" stroke-width="2.5"/><text x="210.0" y="155" fill="#000000" font-family="Archivo Black,sans-serif" font-size="11.5" text-anchor="middle">CF</text>
<text x="210.0" y="124" fill="#FFC400" font-family="Barlow Condensed,sans-serif" font-size="14" font-weight="600" text-anchor="middle" letter-spacing=".8">stays high</text>
<circle cx="60" cy="294" r="17" fill="#FFC400" stroke="#0B0B0C" stroke-width="2.5"/><text x="60" y="299" fill="#000000" font-family="Archivo Black,sans-serif" font-size="11.5" text-anchor="middle">LM</text>
<circle cx="138.0" cy="300" r="17" fill="#FFC400" stroke="#0B0B0C" stroke-width="2.5"/><text x="138.0" y="305" fill="#000000" font-family="Archivo Black,sans-serif" font-size="11.5" text-anchor="middle">CM</text>
<circle cx="282.0" cy="300" r="17" fill="#FFC400" stroke="#0B0B0C" stroke-width="2.5"/><text x="282.0" y="305" fill="#000000" font-family="Archivo Black,sans-serif" font-size="11.5" text-anchor="middle">CM</text>
<circle cx="360" cy="294" r="17" fill="#FFC400" stroke="#0B0B0C" stroke-width="2.5"/><text x="360" y="299" fill="#000000" font-family="Archivo Black,sans-serif" font-size="11.5" text-anchor="middle">RM</text>
<circle cx="216.0" cy="400" r="17" fill="#0B0B0C" stroke="#FFC400" stroke-width="2.5"/><text x="216.0" y="405" fill="#FFC400" font-family="Archivo Black,sans-serif" font-size="11.5" text-anchor="middle">CM</text>
<circle cx="140.0" cy="500" r="17" fill="#FFC400" stroke="#0B0B0C" stroke-width="2.5"/><text x="140.0" y="505" fill="#000000" font-family="Archivo Black,sans-serif" font-size="11.5" text-anchor="middle">LCB</text>
<circle cx="280.0" cy="500" r="17" fill="#FFC400" stroke="#0B0B0C" stroke-width="2.5"/><text x="280.0" y="505" fill="#000000" font-family="Archivo Black,sans-serif" font-size="11.5" text-anchor="middle">RCB</text>
<line x1="92" y1="294" x2="132" y2="298" stroke="#FFC400" stroke-width="3" marker-end="url(#ah)" opacity=".95"/>
<line x1="328" y1="294" x2="288" y2="298" stroke="#FFC400" stroke-width="3" marker-end="url(#ah)" opacity=".95"/>
<line x1="216.0" y1="382" x2="214.0" y2="326" stroke="#FFC400" stroke-width="3" marker-end="url(#ah)" opacity=".95"/>
<text x="216.0" y="434" fill="#FFC400" font-family="Barlow Condensed,sans-serif" font-size="14" font-weight="600" text-anchor="middle" letter-spacing=".8">dropped CM attacks it first</text>
<text x="210.0" y="476" fill="#ffffff" font-family="Barlow Condensed,sans-serif" font-size="13" font-weight="600" text-anchor="middle" letter-spacing=".8">CBs hold behind as cover</text>
<text x="210.0" y="540" fill="#ffffff" font-family="Barlow Condensed,sans-serif" font-size="12" font-weight="600" text-anchor="middle" letter-spacing=".8">CM first to the ball &#183; CM second ball &#183; CBs stay in position</text>
</svg>